<svg width="669.0599609375px" height="202.4099609375px" xmlns="http://www.w3.org/2000/svg" viewBox="-84.52998046875001 -26.204980468749994 669.0599609375 202.4099609375" style="background: none;" preserveAspectRatio="xMidYMid"><defs><filter id="editing-lego" x="-100%" y="-100%" width="300%" height="300%"><feFlood flood-color="#000" result="f1"></feFlood><feFlood flood-color="#ffff00" result="f2"></feFlood><feMorphology operator="dilate" radius="3" in="SourceAlpha"></feMorphology><feConvolveMatrix order="5,5" divisor="1" result="cm1" kernelMatrix="0 1 1 1 0  1 0 0 0 1  1 0 0 0 1  1 0 0 0 1  0 1 1 1 0"></feConvolveMatrix><feComposite operator="in" in="f1" in2="cm1" result="c1"></feComposite><feMorphology operator="dilate" radius="3"></feMorphology><feConvolveMatrix order="5,5" divisor="1" result="cm2" kernelMatrix="0 1 1 1 0  1 0 0 0 1  1 0 0 0 1  1 0 0 0 1  0 1 1 1 0"></feConvolveMatrix><feComposite operator="in" in="f2" in2="cm2" result="c2"></feComposite><feMerge><feMergeNode in="c2"></feMergeNode><feMergeNode in="c1"></feMergeNode><feMergeNode in="SourceGraphic"></feMergeNode></feMerge></filter></defs><g filter="url(#editing-lego)"><g transform="translate(11.37498664855957, 118.125)"><path d="M4.83-71.30L4.83-71.30L4.83-71.30Q6.44-74.52 9.95-76.30L9.95-76.30L9.95-76.30Q13.46-78.09 18.29-78.09L18.29-78.09L18.29-78.09Q25.88-78.09 30.42-72.62L30.42-72.62L30.42-72.62Q34.96-67.16 34.96-55.20L34.96-55.20L34.96-14.15L61.30-75.78L74.87-75.78L77.97-17.60L77.63-14.26L105.00-75.78L120.75-75.78L83.95 0L59.46 0L57.16-34.96L41.98 0L14.26 0L10.81-55.20L10.81-55.20Q10.46-61.41 8.80-65.49L8.80-65.49L8.80-65.49Q7.13-69.58 4.83-71.30ZM160.43-19.44L160.43-19.44L160.43-19.44Q163.30-17.48 163.30-13.17L163.30-13.17L163.30-13.17Q163.30-8.86 161.12-6.10L161.12-6.10L161.12-6.10Q158.93-3.33 155.37-1.50L155.37-1.50L155.37-1.50Q148.00 2.30 140.07 2.30L140.07 2.30L140.07 2.30Q132.14 2.30 127.48 0.58L127.48 0.58L127.48 0.58Q122.82-1.15 119.72-4.37L119.72-4.37L119.72-4.37Q113.62-10.46 113.62-21.62L113.62-21.62L113.62-21.62Q113.62-38.98 123.05-49.57L123.05-49.57L123.05-49.57Q133.17-60.95 150.77-60.95L150.77-60.95L150.77-60.95Q161.69-60.95 167.10-56.35L167.10-56.35L167.10-56.35Q171.12-52.90 171.12-47.27L171.12-47.27L171.12-47.27Q171.12-27.03 136.16-27.03L136.16-27.03L136.16-27.03Q135.70-24.04 135.70-21.51L135.70-21.51L135.70-21.51Q135.70-16.21 138.06-14.20L138.06-14.20L138.06-14.20Q140.42-12.19 144.79-12.19L144.79-12.19L144.79-12.19Q149.16-12.19 153.81-14.20L153.81-14.20L153.81-14.20Q158.47-16.21 160.43-19.44ZM136.97-31.97L136.97-31.97L136.97-31.97Q145.13-31.97 149.85-37.03L149.85-37.03L149.85-37.03Q154.56-41.86 154.56-49.57L154.56-49.57L154.56-49.57Q154.56-52.21 153.58-53.65L153.58-53.65L153.58-53.65Q152.61-55.09 150.65-55.09L150.65-55.09L150.65-55.09Q148.70-55.09 147.03-54.34L147.03-54.34L147.03-54.34Q145.36-53.59 143.64-51.06L143.64-51.06L143.64-51.06Q139.38-45.31 136.97-31.97ZM173.54-5.52L173.54-5.52L187.80-80.50L211.14-82.80L207.58-65.20L207.58-65.20Q206.31-59.80 204.70-56.01L204.70-56.01L204.70-56.01Q207.23-59.23 212.75-60.49L212.75-60.49L212.75-60.49Q214.36-60.95 216.32-60.95L216.32-60.95L216.32-60.95Q227.01-60.95 232.88-54.45L232.88-54.45L232.88-54.45Q238.74-47.96 238.74-35.42L238.74-35.42L238.74-35.42Q238.74-19.09 229.43-8.86L229.43-8.86L229.43-8.86Q219.42 2.30 201.25 2.30L201.25 2.30L201.25 2.30Q188.72 2.30 179.29-1.84L179.29-1.84L179.29-1.84Q175.95-3.33 173.54-5.52ZM202.75-40.25L196.65-6.56L196.65-6.56Q199.07-4.49 202.06-4.49L202.06-4.49L202.06-4.49Q205.05-4.49 206.77-5.64L206.77-5.64L206.77-5.64Q208.50-6.79 209.76-9.09L209.76-9.09L209.76-9.09Q213.21-15.29 215.97-34.27L215.97-34.27L215.97-34.27Q216.78-39.68 216.78-45.08L216.78-45.08L216.78-45.08Q216.78-50.48 215.57-52.21L215.57-52.21L215.57-52.21Q214.36-53.94 212.06-53.94L212.06-53.94L212.06-53.94Q205.05-53.94 202.75-40.25L202.75-40.25ZM280.02-40.37L280.02-40.37L280.02-40.37Q281.63-44.62 281.63-48.30L281.63-48.30L281.63-48.30Q281.63-55.09 276.12-55.09L276.12-55.09L276.12-55.09Q273.24-55.09 270.88-52.50L270.88-52.50L270.88-52.50Q268.52-49.91 268.52-46.69L268.52-46.69L268.52-46.69Q268.52-44.39 270.37-42.55L270.37-42.55L270.37-42.55Q273.01-40.02 279.80-35.88L279.80-35.88L279.80-35.88Q286.58-31.74 289.17-28.35L289.17-28.35L289.17-28.35Q291.75-24.96 291.75-20.30L291.75-20.30L291.75-20.30Q291.75-15.64 289.51-11.38L289.51-11.38L289.51-11.38Q287.27-7.13 283.25-4.14L283.25-4.14L283.25-4.14Q274.62 2.30 260.82 2.30L260.82 2.30L260.82 2.30Q253.34 2.30 247.59-1.61L247.59-1.61L247.59-1.61Q241.84-5.41 241.84-9.89L241.84-9.89L241.84-9.89Q241.84-14.38 245.12-17.02L245.12-17.02L245.12-17.02Q248.40-19.66 253.23-19.66L253.23-19.66L253.23-19.66Q258.06-19.66 261.05-17.82L261.05-17.82L261.05-17.82Q259.56-14.03 259.56-11.50L259.56-11.50L259.56-11.50Q259.56-3.91 266.00-3.91L266.00-3.91L266.00-3.91Q268.75-3.91 270.60-5.64L270.60-5.64L270.60-5.64Q272.44-7.36 272.44-10.35L272.44-10.35L272.44-10.35Q272.44-16.21 262.55-22.43L262.55-22.43L262.55-22.43Q254.50-27.71 252.66-29.79L252.66-29.79L252.66-29.79Q249.55-33.47 249.55-38.07L249.55-38.07L249.55-38.07Q249.55-42.66 251.74-47.04L251.74-47.04L251.74-47.04Q253.92-51.41 257.94-54.51L257.94-54.51L257.94-54.51Q266.34-60.95 280.94-60.95L280.94-60.95L280.94-60.95Q288.42-60.95 292.85-57.96L292.85-57.96L292.85-57.96Q297.27-54.97 297.27-49.91L297.27-49.91L297.27-49.91Q297.27-44.85 294.23-41.98L294.23-41.98L294.23-41.98Q291.18-39.10 285.66-39.10L285.66-39.10L285.66-39.10Q281.87-39.10 280.02-40.37ZM359.38-12.77L359.38-12.77L359.38-12.77Q359.38-7.71 364.55-6.21L364.55-6.21L364.55-6.21Q363.28-1.96 358.34 0.35L358.34 0.35L358.34 0.35Q354.20 2.30 349.66 2.30L349.66 2.30L349.66 2.30Q345.12 2.30 342.76 1.09L342.76 1.09L342.76 1.09Q340.40-0.12 339.13-2.07L339.13-2.07L339.13-2.07Q337.06-5.06 337.06-10.70L337.06-10.70L337.06-10.70Q337.06-14.03 338.90-23.23L338.90-23.23L340.51-31.97L340.51-31.97Q342.47-41.98 342.47-45.66L342.47-45.66L342.47-45.66Q342.47-52.09 338.90-52.09L338.90-52.09L338.90-52.09Q334.42-52.09 331.55-45.54L331.55-45.54L331.55-45.54Q330.39-43.01 329.59-39.22L329.59-39.22L321.77 0L298.65 2.30L314.87-80.50L337.99-82.80L337.06-78.20L337.06-78.20Q333.84-60.49 331.08-54.51L331.08-54.51L331.08-54.51Q337.52-60.95 349.37-60.95L349.37-60.95L349.37-60.95Q361.90-60.95 364.20-52.67L364.20-52.67L364.20-52.67Q365.01-50.03 365.01-47.73L365.01-47.73L365.01-47.73Q365.01-45.43 364.84-43.64L364.84-43.64L364.84-43.64Q364.66-41.86 364.09-38.64L364.09-38.64L362.59-30.36L359.95-17.37L359.95-17.37Q359.38-14.72 359.38-12.77ZM401.46-6.33L401.46-6.33L401.46-6.33Q397.90 2.30 386.51 2.30L386.51 2.30L386.51 2.30Q380.65 2.30 376.97-1.73L376.97-1.73L376.97-1.73Q373.86-5.29 373.86-8.86L373.86-8.86L373.86-8.86Q373.86-18.17 378.12-36.34L378.12-36.34L382.37-58.65L405.72-60.95L398.70-24.61L398.70-24.61Q396.75-16.10 396.75-13.11L396.75-13.11L396.75-13.11Q396.75-6.56 401.46-6.33ZM384.44-74.64L384.44-74.64L384.44-74.64Q384.44-79.12 388.18-81.53L388.18-81.53L388.18-81.53Q391.92-83.95 397.32-83.95L397.32-83.95L397.32-83.95Q402.73-83.95 406.01-81.53L406.01-81.53L406.01-81.53Q409.28-79.12 409.28-74.64L409.28-74.64L409.28-74.64Q409.28-70.15 405.66-67.85L405.66-67.85L405.66-67.85Q402.04-65.55 396.63-65.55L396.63-65.55L396.63-65.55Q391.23-65.55 387.84-67.85L387.84-67.85L387.84-67.85Q384.44-70.15 384.44-74.64ZM436.31 2.30L436.31 2.30L436.31 2.30Q411.01 2.30 411.01-21.51L411.01-21.51L411.01-21.51Q411.01-38.41 420.32-49.34L420.32-49.34L420.32-49.34Q430.21-60.95 447.35-60.95L447.35-60.95L447.35-60.95Q459.77-60.95 466.09-55.20L466.09-55.20L466.09-55.20Q472.42-49.45 472.42-37.38L472.42-37.38L472.42-37.38Q472.42-18.98 462.53-8.28L462.53-8.28L462.53-8.28Q452.87 2.30 436.31 2.30ZM439.30-47.73L439.30-47.73L439.30-47.73Q437.92-44.62 436.83-39.96L436.83-39.96L436.83-39.96Q435.73-35.30 434.35-27.95L434.35-27.95L434.35-27.95Q432.97-20.59 432.97-11.50L432.97-11.50L432.97-11.50Q432.97-8.51 433.95-6.56L433.95-6.56L433.95-6.56Q434.93-4.60 437.57-4.60L437.57-4.60L437.57-4.60Q440.22-4.60 441.89-5.87L441.89-5.87L441.89-5.87Q443.55-7.13 444.82-10.12L444.82-10.12L444.82-10.12Q447.12-15.41 448.96-25.24L448.96-25.24L448.96-25.24Q450.80-35.08 450.97-39.33L450.97-39.33L450.97-39.33Q451.14-43.59 451.14-46.75L451.14-46.75L451.14-46.75Q451.14-49.91 450.22-51.98L450.22-51.98L450.22-51.98Q449.30-54.05 446.72-54.05L446.72-54.05L446.72-54.05Q444.13-54.05 442.40-52.44L442.40-52.44L442.40-52.44Q440.68-50.83 439.30-47.73Z" fill="#fff"></path></g></g><style>text {
  font-size: 64px;
  font-family: Arial Black;
  dominant-baseline: central;
  text-anchor: middle;
}</style></svg>